<svg width="20" height="20" viewBox="0 0 20 20" fill="none" xmlns="http://www.w3.org/2000/svg">
<g clip-path="url(#clip0)">
<path d="M18.1201 4.47037L17.6785 3.14667C17.5104 2.64252 17.0403 2.30377 16.509 2.30377H12.7976V1.09543C12.7976 0.491486 12.3065 0 11.7027 0H8.304C7.70037 0 7.20919 0.491486 7.20919 1.09543V2.30377H3.49795C2.96648 2.30377 2.49636 2.64252 2.32821 3.14667L1.88662 4.47037C1.78606 4.77173 1.83703 5.10544 2.02273 5.36316C2.20843 5.62088 2.50887 5.77484 2.82656 5.77484H3.28814L4.30407 18.3376C4.3796 19.2697 5.17061 20 6.10521 20H14.1077C15.0421 20 15.8333 19.2697 15.9087 18.3374L16.9246 5.77484H17.1802C17.4979 5.77484 17.7983 5.62088 17.984 5.36331C18.1697 5.10559 18.2207 4.77173 18.1201 4.47037ZM8.38106 1.17188H11.6257V2.30377H8.38106V1.17188ZM14.7406 18.243C14.7141 18.5712 14.436 18.8281 14.1077 18.8281H6.10521C5.77684 18.8281 5.49883 18.5712 5.47228 18.243L4.46383 5.77484H15.7489L14.7406 18.243ZM3.07787 4.60297L3.43996 3.51746C3.4482 3.49243 3.47155 3.47565 3.49795 3.47565H16.509C16.5354 3.47565 16.5585 3.49243 16.5669 3.51746L16.929 4.60297H3.07787Z" fill="#949498"/>
<path d="M12.8719 18.2014C12.8822 18.202 12.8925 18.2022 12.9028 18.2022C13.2124 18.2022 13.4712 17.9596 13.4874 17.6467L14.0376 7.08431C14.0544 6.76113 13.806 6.4854 13.483 6.46862C13.159 6.45138 12.8842 6.70009 12.8673 7.02328L12.3172 17.5857C12.3004 17.9089 12.5487 18.1846 12.8719 18.2014Z" fill="#949498"/>
<path d="M6.54531 17.648C6.5624 17.9604 6.82088 18.2021 7.12988 18.2021C7.14056 18.2021 7.15154 18.2018 7.16238 18.2011C7.4854 18.1836 7.73305 17.9074 7.71551 17.5842L7.13918 7.0218C7.12164 6.69862 6.84545 6.45097 6.52227 6.46867C6.19924 6.48621 5.95159 6.7624 5.96914 7.08558L6.54531 17.648Z" fill="#949498"/>
<path d="M10.0103 18.2021C10.3339 18.2021 10.5962 17.9398 10.5962 17.6161V7.05371C10.5962 6.73007 10.3339 6.46777 10.0103 6.46777C9.68661 6.46777 9.42432 6.73007 9.42432 7.05371V17.6161C9.42432 17.9398 9.68661 18.2021 10.0103 18.2021Z" fill="#949498"/>
</g>
<defs>
<clipPath id="clip0">
<rect width="20" height="20" fill="white"/>
</clipPath>
</defs>
</svg>
