<svg width="20" height="20" viewBox="0 0 20 20" fill="none" xmlns="http://www.w3.org/2000/svg">
<g clip-path="url(#clip0)">
<path d="M18.8284 1.17211C18.0726 0.41625 17.0677 0 15.9989 0C14.93 0 13.9251 0.41625 13.1693 1.17207L1.98587 12.3555C1.89071 12.4507 1.82177 12.5688 1.78567 12.6984L0.0291112 19.0093C-0.046631 19.2814 0.0304393 19.5734 0.230791 19.7726C0.379228 19.9203 0.578135 20 0.781807 20C0.852978 20 0.924775 19.9902 0.995205 19.9702L7.30603 18.1776C7.57228 18.102 7.77868 17.8911 7.84853 17.6232C7.91837 17.3554 7.84126 17.0706 7.64583 16.8745L3.66724 12.8839L12.9374 3.61371L16.3849 7.06129L9.28829 14.1386C8.98278 14.4433 8.98212 14.9379 9.28681 15.2434C9.59146 15.549 10.0862 15.5496 10.3917 15.245L18.8284 6.83121C19.5842 6.07539 20.0005 5.07051 20.0005 4.00164C20.0005 2.93277 19.5842 1.92789 18.8284 1.17211ZM5.60185 17.0374L1.90778 18.0867L2.94235 14.3698L5.60185 17.0374ZM17.7243 5.72559L17.4913 5.95797L14.0422 2.50887L14.2742 2.27691C14.7349 1.81621 15.3474 1.5625 15.9989 1.5625C16.6504 1.5625 17.2629 1.81621 17.7236 2.27695C18.1843 2.73762 18.438 3.35012 18.438 4.00164C18.438 4.65316 18.1843 5.26566 17.7243 5.72559Z" fill="#949498"/>
</g>
<defs>
<clipPath id="clip0">
<rect width="20" height="20" fill="white"/>
</clipPath>
</defs>
</svg>
