<svg width="15" height="15" viewBox="0 0 15 15" fill="none" xmlns="http://www.w3.org/2000/svg">
<path d="M12.6562 0H10.4297C9.13734 0 8.08594 1.05141 8.08594 2.34375V4.57031C8.08594 5.86266 9.13734 6.91406 10.4297 6.91406H12.6562C13.9486 6.91406 15 5.86266 15 4.57031V2.34375C15 1.05141 13.9486 0 12.6562 0ZM13.8281 4.57031C13.8281 5.21648 13.3024 5.74219 12.6562 5.74219H10.4297C9.78352 5.74219 9.25781 5.21648 9.25781 4.57031V2.34375C9.25781 1.69758 9.78352 1.17188 10.4297 1.17188H12.6562C13.3024 1.17188 13.8281 1.69758 13.8281 2.34375V4.57031Z" fill="#212121"/>
<path d="M4.57031 0H2.34375C1.05141 0 0 1.05141 0 2.34375V4.57031C0 5.86266 1.05141 6.91406 2.34375 6.91406H4.57031C5.86266 6.91406 6.91406 5.86266 6.91406 4.57031V2.34375C6.91406 1.05141 5.86266 0 4.57031 0ZM5.74219 4.57031C5.74219 5.21648 5.21648 5.74219 4.57031 5.74219H2.34375C1.69758 5.74219 1.17188 5.21648 1.17188 4.57031V2.34375C1.17188 1.69758 1.69758 1.17188 2.34375 1.17188H4.57031C5.21648 1.17188 5.74219 1.69758 5.74219 2.34375V4.57031Z" fill="#212121"/>
<path d="M4.57031 8.08594H2.34375C1.05141 8.08594 0 9.13734 0 10.4297V12.6562C0 13.9486 1.05141 15 2.34375 15H4.57031C5.86266 15 6.91406 13.9486 6.91406 12.6562V10.4297C6.91406 9.13734 5.86266 8.08594 4.57031 8.08594ZM5.74219 12.6562C5.74219 13.3024 5.21648 13.8281 4.57031 13.8281H2.34375C1.69758 13.8281 1.17188 13.3024 1.17188 12.6562V10.4297C1.17188 9.78352 1.69758 9.25781 2.34375 9.25781H4.57031C5.21648 9.25781 5.74219 9.78352 5.74219 10.4297V12.6562Z" fill="#212121"/>
<path d="M14.4141 12.0703C14.0904 12.0703 13.8281 12.3326 13.8281 12.6562C13.8281 13.3024 13.3024 13.8281 12.6562 13.8281H10.4297C9.78352 13.8281 9.25781 13.3024 9.25781 12.6562V10.4297C9.25781 9.78352 9.78352 9.25781 10.4297 9.25781H12.6562C13.1222 9.25781 13.544 9.53376 13.7307 9.96082C13.8604 10.2573 14.2058 10.3925 14.5023 10.2629C14.7988 10.1333 14.9341 9.78779 14.8044 9.49131C14.4311 8.63757 13.5879 8.08594 12.6562 8.08594H10.4297C9.13734 8.08594 8.08594 9.13734 8.08594 10.4297V12.6562C8.08594 13.9486 9.13734 15 10.4297 15H12.6562C13.9486 15 15 13.9486 15 12.6562C15 12.3326 14.7377 12.0703 14.4141 12.0703Z" fill="#212121"/>
</svg>
