<svg width="15" height="15" viewBox="0 0 15 15" fill="none" xmlns="http://www.w3.org/2000/svg">
<g clip-path="url(#clip0)">
<path d="M11.8926 1.96528H10.5356V1.35819C10.5356 1.16177 10.3213 1.0725 10.1249 1.0725H9.07141C8.82144 0.358272 8.19648 0.00115613 7.48225 0.00115613C6.77588 -0.0253994 6.13339 0.407726 5.89309 1.0725H4.85746C4.66104 1.0725 4.46463 1.16177 4.46463 1.35819V1.96528H3.10756C2.30337 1.97386 1.64547 2.60825 1.60767 3.41158V13.6429C1.60767 14.4286 2.3219 15 3.10756 15H11.8926C12.6783 15 13.3925 14.4286 13.3925 13.6429V3.41162C13.3547 2.60825 12.6968 1.97386 11.8926 1.96528ZM5.17882 1.78674H6.1609C6.33233 1.76582 6.47003 1.6354 6.50017 1.46534C6.60592 1.00483 7.00992 0.674273 7.48225 0.661833C7.9502 0.676016 8.34813 1.0076 8.44645 1.46534C8.47848 1.64128 8.62527 1.77337 8.80357 1.78674H9.82136V3.2152H5.17882V1.78674ZM12.6783 13.643C12.6783 14.0358 12.2854 14.2858 11.8926 14.2858H3.10756C2.71473 14.2858 2.3219 14.0358 2.3219 13.643V3.41162C2.35833 3.00272 2.69709 2.68703 3.10756 2.67954H4.46459V3.59019C4.48346 3.79026 4.65673 3.93992 4.85742 3.92947H10.1249C10.3292 3.94064 10.5079 3.79303 10.5355 3.59019V2.67951H11.8926C12.303 2.68703 12.6418 3.00269 12.6782 3.41158V13.643H12.6783Z" fill="#212121"/>
<path d="M5.62532 7.96481L4.48254 9.054L4.00044 8.55403C3.8665 8.41284 3.64415 8.40491 3.50046 8.53619C3.36215 8.6811 3.36215 8.90909 3.50046 9.054L4.23254 9.80395C4.2959 9.8749 4.38743 9.91414 4.48251 9.91109C4.5767 9.90976 4.66655 9.87124 4.73248 9.80395L6.12523 8.48263C6.13241 8.47607 6.13928 8.46916 6.14584 8.46202C6.2725 8.32395 6.26327 8.10935 6.12523 7.98269C5.99136 7.84147 5.769 7.83354 5.62532 7.96481Z" fill="#212121"/>
<path d="M11.2498 8.75049H7.14301C6.94577 8.75049 6.78589 8.91037 6.78589 9.1076C6.78589 9.30484 6.94577 9.46472 7.14301 9.46472H11.2498C11.4471 9.46472 11.6069 9.30484 11.6069 9.1076C11.6069 8.91037 11.4471 8.75049 11.2498 8.75049Z" fill="#212121"/>
<path d="M11.2498 5.89355H7.14301C6.94577 5.89355 6.78589 6.05344 6.78589 6.25067C6.78589 6.44791 6.94577 6.60779 7.14301 6.60779H11.2498C11.4471 6.60779 11.6069 6.44791 11.6069 6.25067C11.6069 6.05344 11.4471 5.89355 11.2498 5.89355Z" fill="#212121"/>
<path d="M5.62532 10.8217L4.48254 11.9109L4.00044 11.411C3.8665 11.2698 3.64415 11.2618 3.50046 11.3931C3.36215 11.538 3.36215 11.766 3.50046 11.9109L4.23254 12.6609C4.2959 12.7318 4.38743 12.7711 4.48251 12.768C4.5767 12.7667 4.66655 12.7282 4.73248 12.6609L6.12523 11.3396C6.13241 11.333 6.13928 11.3261 6.14584 11.319C6.2725 11.1809 6.26327 10.9663 6.12523 10.8396C5.99136 10.6984 5.769 10.6905 5.62532 10.8217Z" fill="#212121"/>
<path d="M11.2498 11.6074H7.14301C6.94577 11.6074 6.78589 11.7673 6.78589 11.9645C6.78589 12.1618 6.94577 12.3216 7.14301 12.3216H11.2498C11.4471 12.3216 11.6069 12.1618 11.6069 11.9645C11.6069 11.7673 11.4471 11.6074 11.2498 11.6074Z" fill="#212121"/>
<path d="M3.67889 7.5362H5.80371C5.81595 7.53685 5.82819 7.53685 5.84042 7.5362C6.02751 7.52605 6.17098 7.36617 6.16083 7.17908V5.25067C6.16083 5.05344 6.00095 4.89355 5.80371 4.89355H3.67889C3.48166 4.89355 3.32178 5.05344 3.32178 5.25067V7.17908C3.32113 7.19132 3.32113 7.20355 3.32178 7.21579C3.33193 7.40291 3.49181 7.54635 3.67889 7.5362ZM4.03601 5.60779H5.4466V6.82196H4.03601V5.60779Z" fill="#212121"/>
</g>
<defs>
<clipPath id="clip0">
<rect width="15" height="15" fill="white"/>
</clipPath>
</defs>
</svg>
