<svg width="194" height="136" viewBox="0 0 194 136" fill="none" xmlns="http://www.w3.org/2000/svg">
<g clip-path="url(#clip0)">
<path d="M140.88 130.353H0V130.819H140.88V130.353Z" fill="#E6E6E6"/>
<path d="M40.9629 124.665H49.0752L54.2603 79.1497L63.7935 124.665H69.2672V70.3896L43.2424 62.5814L40.9629 124.665Z" fill="#2F2E41"/>
<path d="M66.8043 131.399L74.4101 132.796C74.9178 132.863 75.4316 132.731 75.8444 132.427C76.2572 132.124 76.5373 131.672 76.6263 131.166C76.6966 130.767 76.6437 130.355 76.4745 129.987C76.3054 129.618 76.0281 129.31 75.6798 129.104L72.6865 127.331L69.2672 122.379L63.3784 123.522V127.485C63.3784 128.443 63.726 129.369 64.3563 130.089C64.9867 130.809 65.8568 131.275 66.8043 131.399Z" fill="#2F2E41"/>
<path d="M46.0453 135.999C46.6061 135.987 47.1582 135.857 47.6665 135.619C48.1747 135.381 48.628 135.04 48.9975 134.616C49.3669 134.193 49.6445 133.698 49.8125 133.161C49.9805 132.624 50.0353 132.059 49.9733 131.5L49.1314 123.903H41.9128V131.947C41.9128 132.487 42.0204 133.021 42.2292 133.519C42.438 134.017 42.7439 134.467 43.1288 134.845C43.5138 135.222 43.97 135.519 44.4709 135.717C44.9717 135.915 45.5069 136.011 46.0453 135.999Z" fill="#2F2E41"/>
<path d="M54.795 21.1365C58.7021 21.1365 61.8694 17.9612 61.8694 14.0442C61.8694 10.1272 58.7021 6.9519 54.795 6.9519C50.8878 6.9519 47.7205 10.1272 47.7205 14.0442C47.7205 17.9612 50.8878 21.1365 54.795 21.1365Z" fill="#A0616A"/>
<path d="M48.3716 28.6831H61.2889C59.5092 25.453 58.3819 22.2182 59.0094 18.9707H50.4612C50.629 21.3996 49.598 24.95 48.3716 28.6831Z" fill="#A0616A"/>
<path d="M43.8125 63.7241C51.4034 69.6756 59.7824 72.6755 69.2673 71.5322C65.2614 57.4316 64.0732 43.4378 67.9375 29.6355L59.9592 26.0171L49.1314 25.4458L42.6132 27.3677C41.6963 27.6384 40.8935 28.2037 40.3286 28.9767C39.7636 29.7497 39.4678 30.6874 39.4867 31.6454C39.7168 43.4163 40.7957 54.4322 43.8125 63.7241Z" fill="#E6E6E6"/>
<path d="M70.1936 82.7567C70.6453 82.7806 71.0965 82.7004 71.5125 82.5223C71.9286 82.3442 72.2984 82.073 72.5937 81.7295C72.889 81.3859 73.1018 80.9791 73.216 80.5403C73.3302 80.1015 73.3426 79.6423 73.2523 79.1979L71.9268 72.6747H68.6975L67.44 79.2299C67.3601 79.6466 67.3702 80.0757 67.4696 80.4883C67.569 80.9008 67.7555 81.2872 68.0164 81.6214C68.2773 81.9556 68.6066 82.2298 68.9822 82.4257C69.3578 82.6215 69.7708 82.7344 70.1936 82.7567Z" fill="#A0616A"/>
<path d="M48.337 73.1218C48.7142 72.8715 49.0292 72.5379 49.2578 72.1466C49.4865 71.7553 49.6227 71.3167 49.6561 70.8644C49.6895 70.4121 49.6191 69.9582 49.4503 69.5375C49.2816 69.1167 49.019 68.7402 48.6826 68.437L43.7452 63.9854L41.1499 65.912L44.0306 71.9303C44.2137 72.3129 44.4765 72.6517 44.8013 72.9239C45.1261 73.1962 45.5053 73.3954 45.9134 73.5084C46.3214 73.6213 46.7489 73.6452 47.167 73.5785C47.5851 73.5118 47.984 73.3561 48.337 73.1218Z" fill="#A0616A"/>
<path d="M41.5328 67.3424L44.5721 64.4858L41.1528 49.0602L42.9575 27.2549C39.0373 28.49 34.828 31.808 34.1347 35.8685L31.6548 50.3933L41.5328 67.3424Z" fill="#E6E6E6"/>
<path d="M67.7477 72.6746L72.6866 73.246L71.5302 36.4784C71.4785 34.8355 70.9561 33.2423 70.0252 31.8892C69.0943 30.5361 67.7945 29.4803 66.2811 28.8482L64.5183 28.1118L64.9932 45.3466L67.7477 72.6746Z" fill="#E6E6E6"/>
<path d="M48.0243 10.4775C48.7049 9.19018 49.5697 6.62451 50.9434 6.14868C51.7062 5.89509 52.4947 5.7267 53.2945 5.64657L55.6294 6.54688L54.3586 5.55603C54.606 5.54126 54.8533 5.52917 55.1004 5.51979L56.6759 6.12724L55.8698 5.49877C57.3386 5.48366 58.8546 5.63676 59.9927 6.53312C60.9629 7.29727 61.9241 10.192 62.0796 11.419C62.2457 12.5929 62.1876 13.7877 61.9082 14.9397L61.5092 15.32C61.3697 14.9992 61.2647 14.6643 61.1962 14.3212C61.0532 13.6799 60.7785 13.0756 60.3896 12.5467C60.0007 12.0177 59.5061 11.5758 58.9375 11.2491L58.9158 11.2368C58.2466 10.8593 57.4347 10.8767 56.6673 10.9044L53.0228 11.0359C52.146 11.0675 51.2018 11.1231 50.5182 11.6745C50.0565 12.0469 49.7799 12.5966 49.5168 13.1288C49.1772 13.8161 48.5134 16.4084 48.5134 16.4084C48.5134 16.4084 48.1379 15.9191 47.9579 16.2833C47.6692 15.3331 47.4937 14.3519 47.4351 13.3604C47.3776 12.3644 47.5808 11.3706 48.0243 10.4775Z" fill="#2F2E41"/>
<path opacity="0.2" d="M41.4382 40.7761L38.9685 50.6789L44.5724 64.7312L40.2983 51.4407L41.4382 40.7761Z" fill="black"/>
<path opacity="0.2" d="M65.8986 45.9099L67.8048 67.1295L64.5769 46.0579L65.8986 45.9099Z" fill="black"/>
<path d="M135.905 80.3186C137.168 80.3186 138.193 79.2917 138.193 78.025C138.193 76.7582 137.168 75.7313 135.905 75.7313C134.641 75.7313 133.617 76.7582 133.617 78.025C133.617 79.2917 134.641 80.3186 135.905 80.3186Z" fill="#E6E6E6"/>
<path d="M145.438 80.3186C146.701 80.3186 147.725 79.2917 147.725 78.025C147.725 76.7582 146.701 75.7313 145.438 75.7313C144.174 75.7313 143.15 76.7582 143.15 78.025C143.15 79.2917 144.174 80.3186 145.438 80.3186Z" fill="#E6E6E6"/>
<path d="M154.971 80.3186C156.234 80.3186 157.258 79.2917 157.258 78.025C157.258 76.7582 156.234 75.7313 154.971 75.7313C153.707 75.7313 152.683 76.7582 152.683 78.025C152.683 79.2917 153.707 80.3186 154.971 80.3186Z" fill="#E6E6E6"/>
<path d="M192.331 0H121.324C120.881 0.000161814 120.456 0.176543 120.143 0.490376C119.83 0.804208 119.654 1.22981 119.654 1.67364V11.3754H120.322V1.67364C120.322 1.40743 120.428 1.15225 120.616 0.964012C120.804 0.775776 121.058 0.669848 121.324 0.669446H192.331C192.596 0.669846 192.851 0.775772 193.038 0.964008C193.226 1.15224 193.332 1.40743 193.332 1.67364V58.5775C193.332 58.8437 193.226 59.0989 193.038 59.2872C192.851 59.4754 192.596 59.5813 192.331 59.5817H182.508V60.2512H192.331C192.773 60.251 193.198 60.0746 193.511 59.7608C193.824 59.447 194 59.0214 194 58.5775V1.67364C194 1.22981 193.824 0.804208 193.511 0.490376C193.198 0.176543 192.773 0.000162431 192.331 0Z" fill="#E6E6E6"/>
<path d="M180.941 10.719H109.934C109.491 10.7192 109.067 10.8955 108.754 11.2094C108.441 11.5232 108.265 11.9488 108.265 12.3926V69.2965C108.265 69.7403 108.441 70.166 108.754 70.4798C109.067 70.7936 109.491 70.97 109.934 70.9702H180.941C181.384 70.97 181.808 70.7936 182.121 70.4798C182.434 70.166 182.61 69.7403 182.61 69.2965V12.3926C182.61 11.9488 182.434 11.5232 182.121 11.2094C181.808 10.8955 181.384 10.7192 180.941 10.719ZM181.943 69.2965C181.942 69.5627 181.837 69.8179 181.649 70.0061C181.461 70.1944 181.207 70.3003 180.941 70.3007H109.934C109.669 70.3003 109.414 70.1944 109.226 70.0061C109.038 69.8179 108.933 69.5627 108.932 69.2965V12.3926C108.933 12.1264 109.038 11.8712 109.226 11.683C109.414 11.4948 109.669 11.3889 109.934 11.3885H180.941C181.207 11.3889 181.461 11.4948 181.649 11.683C181.837 11.8712 181.942 12.1264 181.943 12.3926V69.2965Z" fill="#3F3D56"/>
<path d="M145.438 57.4967C142.152 57.4967 138.941 56.5201 136.209 54.6903C133.478 52.8606 131.349 50.2599 130.092 47.2171C128.835 44.1744 128.506 40.8262 129.147 37.596C129.787 34.3658 131.369 31.3987 133.692 29.0699C136.015 26.7411 138.975 25.1551 142.197 24.5126C145.419 23.8701 148.759 24.1998 151.794 25.4602C154.829 26.7206 157.423 28.8549 159.249 31.5933C161.074 34.3317 162.048 37.5512 162.048 40.8447C162.043 45.2595 160.291 49.4922 157.177 52.6139C154.063 55.7357 149.841 57.4917 145.438 57.4967Z" fill="#54C172"/>
<path d="M151.992 39.2021H147.076V34.2742C147.076 33.8386 146.904 33.4208 146.596 33.1127C146.289 32.8047 145.872 32.6316 145.438 32.6316C145.003 32.6316 144.586 32.8047 144.279 33.1127C143.972 33.4208 143.799 33.8386 143.799 34.2742V39.2021H138.884C138.449 39.2026 138.033 39.3759 137.726 39.6839C137.419 39.9919 137.247 40.4094 137.247 40.8447C137.247 41.28 137.419 41.6975 137.726 42.0055C138.033 42.3135 138.449 42.4868 138.884 42.4873H143.799V47.4152C143.799 47.8509 143.972 48.2687 144.279 48.5767C144.586 48.8848 145.003 49.0579 145.438 49.0579C145.872 49.0579 146.289 48.8848 146.596 48.5767C146.904 48.2687 147.076 47.8509 147.076 47.4152V42.4873H151.992C152.207 42.4876 152.42 42.4453 152.619 42.3629C152.818 42.2804 152.999 42.1595 153.151 42.0069C153.304 41.8544 153.425 41.6732 153.507 41.4738C153.59 41.2744 153.632 41.0606 153.632 40.8447C153.632 40.6288 153.59 40.4151 153.507 40.2157C153.425 40.0163 153.304 39.8351 153.151 39.6825C152.999 39.53 152.818 39.409 152.619 39.3266C152.42 39.2442 152.207 39.2019 151.992 39.2021Z" fill="white"/>
<path d="M25.2026 116.447C24.8413 114.112 24.1365 111.844 23.1111 109.716L22.9616 109.406L21.8514 110.64L22.674 108.802L22.6202 108.695C21.8943 107.255 21.0898 105.855 20.2104 104.503L20.0473 104.253L19.8297 104.495L19.982 104.154L19.9058 104.04C18.8166 102.402 17.9797 101.366 17.9715 101.356L17.7348 101.064L17.5826 101.412C17.5547 101.476 14.7889 107.865 14.4226 114.178L14.4168 114.277L16.2782 116.532L14.3799 115.338L14.3832 115.771C14.3889 116.513 14.4393 117.254 14.534 117.99C14.6176 118.623 14.716 119.241 14.8292 119.844C15.0087 119.85 15.1832 119.904 15.334 120.002C15.2029 119.328 15.0898 118.636 14.9947 117.925C14.9214 117.357 14.8752 116.78 14.8568 116.205L18.5286 118.516L14.8924 114.109C15.2235 108.772 17.2783 103.394 17.8552 101.974C18.1649 102.377 18.7489 103.158 19.4476 104.202L18.1775 107.041L19.9883 105.028C20.7734 106.253 21.4965 107.517 22.155 108.815L20.1991 113.186L22.8436 110.246C23.7673 112.238 24.4066 114.349 24.7428 116.519C25.2057 120.024 25.1153 123.391 24.4884 126C23.8879 128.499 22.8295 130.035 21.5846 130.215C21.3284 130.25 21.0677 130.235 20.8175 130.169C20.6168 130.312 20.3753 130.386 20.1293 130.38H20.0614C20.4476 130.595 20.8804 130.711 21.322 130.719C21.4312 130.719 21.5401 130.711 21.6481 130.696C23.1118 130.485 24.2806 128.859 24.9393 126.118C25.5803 123.45 25.6742 120.018 25.2026 116.447Z" fill="#E6E6E6"/>
<path d="M21.1062 130.535C19.1916 130.535 16.4312 129.479 13.6932 127.557C13.2902 127.272 12.9054 126.962 12.541 126.628L12.2344 126.347L13.3938 126.013L11.85 125.956L11.7848 125.887C8.8909 122.849 7.09006 118.557 7.07213 118.514L6.9314 118.175L7.2973 118.192C7.33374 118.194 8.20368 118.235 9.51115 118.421L9.59264 118.432V118.432L9.87933 118.475C10.947 118.638 12.0047 118.861 13.0473 119.143L13.1587 119.173L13.5065 120.032L13.4538 119.262L13.7729 119.354C15.2856 119.792 16.7223 120.459 18.033 121.334C22.1968 124.257 24.5007 127.91 23.2828 129.654C22.8665 130.25 22.1002 130.535 21.1062 130.535ZM13.17 126.562C13.4243 126.778 13.689 126.984 13.9605 127.176C17.7741 129.853 21.8688 130.865 22.9019 129.387C23.9348 127.908 21.585 124.397 17.7709 121.719C16.5942 120.934 15.3122 120.321 13.9633 119.898L14.1696 122.908L12.8149 119.563C11.9227 119.326 11.01 119.13 10.0962 118.981L10.2459 121.166L9.31353 118.864C8.59113 118.764 8.00879 118.71 7.65457 118.683C8.13749 119.746 9.73324 123.029 12.0562 125.497L16.3168 125.654L13.17 126.562Z" fill="#E6E6E6"/>
</g>
<defs>
<clipPath id="clip0">
<rect width="194" height="136" fill="white"/>
</clipPath>
</defs>
</svg>
