<svg width="15" height="15" viewBox="0 0 15 15" fill="none" xmlns="http://www.w3.org/2000/svg">
<path d="M12.2759 10.0051H10.7727V10.5062H12.2759V10.0051Z" fill="#212121"/>
<path d="M10.2717 10.0051H8.76855V10.5062H10.2717V10.0051Z" fill="#212121"/>
<path d="M8.26759 10.0051H6.7644V10.5062H8.26759V10.0051Z" fill="#212121"/>
<path d="M14.778 5.19583L9.82078 0.237833C9.68001 0.0957199 9.4882 0.0158633 9.28815 0.0161139H9.28589C9.08716 0.0162078 8.89682 0.0960957 8.75753 0.237833L3.4989 5.49571H0.75159C0.336493 5.49571 0 5.83221 0 6.2473V13.2622C0 13.6772 0.336493 14.0137 0.75159 14.0137H4.46344L5.21102 14.7621C5.35179 14.9042 5.5436 14.984 5.74365 14.9838H5.74566C5.94445 14.9837 6.13492 14.9038 6.27427 14.7621L7.02336 14.0137H12.777C13.1921 14.0137 13.5286 13.6772 13.5286 13.2622V7.50847L14.7768 6.26033C14.9192 6.12088 14.9996 5.93004 15 5.73071C15.0007 5.52985 14.9208 5.33713 14.778 5.19583ZM11.591 2.71733L8.81264 5.49571H6.68514L10.5273 1.65358L11.591 2.71733ZM9.11228 0.591081C9.20757 0.493468 9.36397 0.491589 9.46161 0.586916C9.46302 0.588294 9.46443 0.589672 9.46578 0.591081L10.173 1.29933L5.97639 5.49571H4.2074L9.11228 0.591081ZM5.91952 14.4088C5.87371 14.4567 5.81039 14.4838 5.74415 14.484C5.67701 14.4838 5.61275 14.4568 5.56577 14.4088L5.17219 14.0137H6.31486L5.91952 14.4088ZM13.0276 13.2622C13.0276 13.4005 12.9154 13.5127 12.777 13.5127H0.75159C0.613235 13.5127 0.50106 13.4005 0.50106 13.2622V9.75473H13.0276V13.2622ZM13.0276 9.25367H0.50106V7.75049H13.0276V9.25367ZM13.0276 7.24942H0.50106V6.2473C0.50106 6.10895 0.613235 5.99677 0.75159 5.99677H12.777C12.9154 5.99677 13.0276 6.10895 13.0276 6.2473V7.24942ZM14.4238 5.90483L13.5286 6.79997V6.2473C13.5286 5.83221 13.1921 5.49571 12.777 5.49571H9.52014L11.9443 3.07158L14.4228 5.55008C14.4709 5.59724 14.498 5.66181 14.4979 5.72921C14.4979 5.79535 14.4711 5.85867 14.4238 5.90483Z" fill="#212121"/>
<path d="M2.40277 13.0184C2.43935 12.9867 2.47361 12.9525 2.50524 12.9159C2.83654 13.3018 3.40577 13.3751 3.82403 13.0858C4.09398 12.897 4.25601 12.5894 4.25895 12.26C4.25895 11.7066 3.81029 11.2579 3.25683 11.2579C3.2071 11.2572 3.15743 11.2614 3.10852 11.2704L3.102 11.2722C3.0995 11.2722 3.09699 11.2722 3.09474 11.2722C2.86522 11.3103 2.6565 11.4281 2.50524 11.6049C2.14322 11.1862 1.51035 11.1404 1.09175 11.5024C0.67311 11.8644 0.627231 12.4973 0.989279 12.9159C1.3513 13.3345 1.98414 13.3804 2.40277 13.0184ZM3.19345 11.7642C3.21434 11.7602 3.23557 11.7585 3.25683 11.7589C3.53357 11.7589 3.75789 11.9833 3.75789 12.26C3.75764 12.366 3.7231 12.4691 3.65944 12.5539C3.65042 12.5662 3.6434 12.5789 3.63313 12.5917C3.63138 12.5937 3.62887 12.595 3.62687 12.597C3.53223 12.7015 3.39782 12.7611 3.25683 12.7611C2.98015 12.7563 2.75965 12.5282 2.76438 12.2516C2.76858 12.0059 2.95028 11.7995 3.19345 11.7642ZM1.75365 11.7589C2.03039 11.7589 2.25471 11.9833 2.25471 12.26C2.25471 12.5367 2.03039 12.7611 1.75365 12.7611C1.47691 12.7611 1.25259 12.5367 1.25259 12.26C1.25259 11.9833 1.47691 11.7589 1.75365 11.7589Z" fill="#212121"/>
</svg>
