<svg width="15" height="15" viewBox="0 0 15 15" fill="none" xmlns="http://www.w3.org/2000/svg">
<g clip-path="url(#clip0)">
<path d="M14.6455 7.0186C14.421 6.81146 14.1156 6.68352 13.8075 6.66749C13.4576 6.64941 13.1299 6.77415 12.8858 7.01837L11.2179 8.66872C11.185 8.61162 11.1473 8.55772 11.1051 8.50771C10.8999 8.26406 10.5998 8.12994 10.2603 8.12994H7.92545C7.4852 8.12994 7.0557 8.07283 6.64898 7.96033C5.58857 7.66702 4.57553 7.88126 3.71917 8.58026C3.37093 8.86453 3.11687 9.17375 2.9562 9.3992L2.53757 8.99293C2.48252 8.93949 2.40791 8.90916 2.33112 8.90916C2.33043 8.90916 2.32986 8.90916 2.32917 8.90916C2.24964 8.90974 2.17273 8.94281 2.11757 9.00003L0.0824681 11.1127C0.0279942 11.1693 -0.001646 11.2452 7.06158e-05 11.3238C0.00178723 11.4024 0.0346318 11.477 0.091509 11.5311L3.53355 14.8086C3.59066 14.863 3.6639 14.8901 3.73703 14.8901C3.81382 14.8901 3.89061 14.8602 3.9484 14.8009L5.96451 12.7325C6.01955 12.676 6.05011 12.5987 6.04862 12.5198C6.04713 12.442 6.01452 12.3669 5.95867 12.3126L5.78312 12.1424L6.18492 12.0971C6.42799 12.0689 6.67518 12.0546 6.91986 12.0546H10.4722C11.0495 12.0546 11.5397 11.9283 11.9295 11.6793C11.9327 11.6773 11.9359 11.6751 11.9391 11.6729C12.0787 11.5759 12.2054 11.4609 12.3155 11.3312L14.7094 8.51491C15.1191 8.033 15.0935 7.43162 14.6455 7.0186ZM3.72936 14.1802L0.713381 11.3084L2.3381 9.62167L5.33645 12.5313L3.72936 14.1802ZM14.2598 8.13268L11.8659 10.9491C11.7899 11.0385 11.7028 11.1179 11.6068 11.1852C11.3142 11.3704 10.9325 11.4645 10.4722 11.4645H6.91974C6.65252 11.4645 6.38233 11.4802 6.11786 11.511L5.2346 11.6101L3.38523 9.81542C3.51375 9.62488 3.75007 9.31692 4.09237 9.03745C4.80396 8.45655 5.61123 8.28546 6.49162 8.52911C6.94961 8.65579 7.43198 8.72011 7.92545 8.72011H10.2603C10.6796 8.72011 10.7915 9.08334 10.7915 9.29792C10.7915 9.4547 10.7412 9.60394 10.6534 9.70739C10.5582 9.81943 10.4228 9.87619 10.251 9.87619H8.21853C8.05557 9.87619 7.92351 10.0084 7.92351 10.1713C7.92351 10.3343 8.05557 10.4664 8.21853 10.4664H10.251C10.5941 10.4664 10.8967 10.3325 11.1031 10.0894C11.2749 9.88729 11.3729 9.62156 11.3811 9.33752L13.302 7.43677C13.5765 7.16222 14.0055 7.23112 14.2455 7.45245C14.3695 7.56689 14.5364 7.80733 14.2598 8.13268Z" fill="#212121"/>
<path d="M7.29845 10.0928C7.26126 9.93404 7.10253 9.83573 6.9438 9.87281C6.78518 9.91 6.68665 10.0687 6.72396 10.2275L6.7267 10.2395C6.75863 10.3754 6.87983 10.4672 7.01372 10.4672C7.03604 10.4672 7.0587 10.4647 7.08136 10.4594C7.24009 10.4222 7.3385 10.2634 7.30131 10.1048L7.29845 10.0928Z" fill="#212121"/>
<path d="M1.99448 6.34278H4.8697C5.02625 6.34278 5.17114 6.29196 5.28901 6.20613C5.40688 6.29196 5.55177 6.34278 5.70832 6.34278H8.58365C8.74021 6.34278 8.88509 6.29196 9.00296 6.20613C9.12084 6.29196 9.26572 6.34278 9.42227 6.34278H12.2975C12.6914 6.34278 13.0118 6.02223 13.0118 5.62832V4.28753C13.0118 3.68534 12.6748 3.16223 12.1703 2.90417C12.4148 2.60937 12.562 2.23126 12.562 1.81927C12.562 0.880738 11.7984 0.117188 10.8599 0.117188C9.92135 0.117188 9.1578 0.880738 9.1578 1.81927C9.1578 2.23126 9.30497 2.60948 9.54942 2.90417C9.33141 3.01586 9.14476 3.17711 9.00296 3.37269C8.86117 3.177 8.67452 3.01575 8.45639 2.90417C8.70084 2.60948 8.84801 2.23126 8.84801 1.81927C8.84801 0.880738 8.08446 0.117188 7.14593 0.117188C6.2074 0.117188 5.44385 0.880738 5.44385 1.81927C5.44385 2.23126 5.59113 2.60948 5.83558 2.90428C5.61746 3.01586 5.4308 3.17711 5.28901 3.3728C5.14722 3.17711 4.96057 3.01586 4.74244 2.90417C4.98689 2.60948 5.13406 2.23126 5.13406 1.81938C5.13406 0.880738 4.37051 0.117188 3.43198 0.117188C2.49356 0.117188 1.73001 0.880738 1.73001 1.81938C1.73001 2.23126 1.87718 2.60948 2.12163 2.90428C1.61717 3.16235 1.28003 3.68557 1.28003 4.28764V5.62832C1.28003 6.02223 1.60058 6.34278 1.99448 6.34278ZM10.86 0.707359C11.4731 0.707359 11.9719 1.20609 11.9719 1.81927C11.9719 2.43233 11.4731 2.93118 10.86 2.93118C10.2468 2.93118 9.74809 2.43244 9.74809 1.81927C9.74797 1.20609 10.2468 0.707359 10.86 0.707359ZM10.0934 3.33824C10.324 3.45509 10.5843 3.52135 10.8599 3.52135C11.1356 3.52135 11.3959 3.45509 11.6264 3.33824C12.085 3.41812 12.4218 3.81329 12.4218 4.28753V5.62832C12.4218 5.69687 12.366 5.7526 12.2975 5.7526H9.42227C9.35384 5.7526 9.29811 5.69687 9.29811 5.62832V4.28753C9.29799 3.8134 9.63491 3.41812 10.0934 3.33824ZM7.14604 0.707359C7.7591 0.707359 8.25795 1.20609 8.25795 1.81927C8.25795 2.43233 7.7591 2.93118 7.14604 2.93118C6.53287 2.93118 6.03414 2.43244 6.03414 1.81927C6.03414 1.20609 6.53287 0.707359 7.14604 0.707359ZM6.37952 3.33824C6.61 3.45509 6.87036 3.52135 7.14604 3.52135C7.42173 3.52135 7.68197 3.45509 7.91257 3.33824C8.37102 3.41812 8.70793 3.81329 8.70793 4.28753V5.62832C8.70793 5.69687 8.6522 5.7526 8.58365 5.7526H5.70844C5.63989 5.7526 5.58415 5.69687 5.58415 5.62832V4.28753C5.58415 3.8134 5.92107 3.41812 6.37952 3.33824ZM3.43209 0.707359C4.04515 0.707359 4.544 1.20609 4.544 1.81927C4.544 2.43233 4.04515 2.93118 3.43209 2.93118C2.81903 2.93118 2.32018 2.43233 2.32018 1.81927C2.32018 1.20609 2.81903 0.707359 3.43209 0.707359ZM1.8702 4.28753C1.8702 3.8134 2.20712 3.41812 2.66557 3.33824C2.89616 3.45509 3.1564 3.52135 3.43209 3.52135C3.70778 3.52135 3.96802 3.45509 4.19862 3.33824C4.65718 3.41812 4.99398 3.81329 4.99398 4.28753V5.62832C4.99398 5.69687 4.93825 5.7526 4.8697 5.7526H1.99448C1.92593 5.7526 1.8702 5.69687 1.8702 5.62832V4.28753Z" fill="#212121"/>
</g>
<defs>
<clipPath id="clip0">
<rect width="15" height="15" fill="white"/>
</clipPath>
</defs>
</svg>
