<svg width="15" height="15" viewBox="0 0 15 15" fill="none" xmlns="http://www.w3.org/2000/svg">
<path d="M7.5 0C5.31917 0 3.54492 1.77425 3.54492 3.95508C3.54492 6.13591 5.31917 7.91016 7.5 7.91016C9.68083 7.91016 11.4551 6.13591 11.4551 3.95508C11.4551 1.77425 9.68083 0 7.5 0ZM7.5 7.03125C5.8038 7.03125 4.42383 5.65128 4.42383 3.95508C4.42383 2.25888 5.8038 0.878906 7.5 0.878906C9.1962 0.878906 10.5762 2.25888 10.5762 3.95508C10.5762 5.65128 9.1962 7.03125 7.5 7.03125Z" fill="#212121"/>
<path d="M8.72558 8.81836H6.27439C4.24699 8.81836 2.24616 9.75442 0.908203 11.7615V15H14.0918V11.7615C12.7558 9.75732 10.7555 8.81836 8.72558 8.81836ZM13.2129 14.1211H13.2129H1.78711V12.0304C2.81341 10.5669 4.48102 9.69727 6.27442 9.69727H8.72561C10.519 9.69727 12.1866 10.5669 13.2129 12.0304V14.1211Z" fill="#212121"/>
</svg>
